# xmcd
#
# Track frame offsets: 
#        150
#        14456
#        27411
#        42079
#        53229
#        67981
#        80290
#        94422
#        106589
#        121257
#        133434
#        149154
#        164693
#        179215
#        196112
#        207513
#        219722
#        232628
#        243744
#        257660
#
# Disc length: 3657 seconds
#
# Revision: 0
# Processed by: cddbd v1.5.2PL0 Copyright (c) Steve Scherf et al.
# Submitted via: ExactAudioCopyFreeDBPlugin 1.0
#
DISCID=2d0e4714
DTITLE=Lacy J. Dalton - 16th Avenue and Takin' It Easy
DYEAR=2014
DGENRE=Country
TTITLE0=16th Avenue
TTITLE1=Rained On
TTITLE2=Blue-Eyed Blues
TTITLE3=You Can't Take the Texas Out of Me
TTITLE4=One of the Unsatisfied
TTITLE5=Jamaica
TTITLE6=Heartbeat
TTITLE7=Slow Down
TTITLE8=Love It Away
TTITLE9=Imagine That
TTITLE10=Takin' It Easy
TTITLE11=Everybody Makes Mistakes
TTITLE12=Where Were You When I Needed You
TTITLE13=Come to Me
TTITLE14=Comes a Time
TTITLE15=Wild Turkey
TTITLE16=Golden Memories
TTITLE17=Let Me in the Fast Lane
TTITLE18=Feedin' the Fire
TTITLE19=Somebody Killed Dewey Jones' Daughter
EXTD=
EXTT0=
EXTT1=
EXTT2=
EXTT3=
EXTT4=
EXTT5=
EXTT6=
EXTT7=
EXTT8=
EXTT9=
EXTT10=
EXTT11=
EXTT12=
EXTT13=
EXTT14=
EXTT15=
EXTT16=
EXTT17=
EXTT18=
EXTT19=
PLAYORDER=
